<svg width="512pt" height="512pt" viewBox="0 0 512 512" xmlns="http://www.w3.org/2000/svg">
    <g transform="translate(0 512) scale(.1 -.1)">
        <path fill="white" d="m171 4048c-49-8-104-47-138-97-40-58-42-155-4-217 10-16 551-614 1203-1329 925-1015 1194-1305 1226-1319 53-24 151-24 204 0 31 14 303 306 1230 1324 654 718 1196 1317 1204 1332 21 41 28 108 14 156-13 51-66 113-116 137-52 24-135 21-186-7-30-16-366-378-1141-1228-604-663-1102-1205-1107-1205s-503 542-1107 1204c-604 663-1113 1214-1132 1225-44 25-96 34-150 24z"/>
    </g>
</svg>
