<svg viewBox="0 0 107 26" xmlns="http://www.w3.org/2000/svg">
    <g>
        <path id="Shape" d="m1.4323 25.936 1.5189-7.2879h-2.9512v-2.5486h3.4744l1.293-6.2109h-4.7675v-2.5486h5.2907l1.5189-7.3395h2.6199l-1.5189 7.3395h5.4997l1.5188-7.3395h2.6369l-1.5189 7.3395h3.0209v2.5486h-3.5441l-1.31 6.2109h4.8541v2.5486h-5.3792l-1.5189 7.2879h-2.618l1.5019-7.2879h-5.4845l-1.5189 7.2879h-2.6181zm4.6621-9.8365h5.4827l1.3099-6.2109h-5.5015l-1.2912 6.2109z"/>
        <path id="a" d="m21.346 13.246c0-7.5332 5.686-12.754 12.552-12.754 6.3654 0 9.9772 3.644 11.265 7.358l-3.6476 1.4366c-1.2158-3.2235-3.4688-5.536-7.6885-5.536-4.3986 0-8.6541 3.2235-8.6541 9.4603 0 6.0966 3.5045 9.6004 8.511 9.6004 4.8277 0 7.5098-3.2235 7.7243-6.1667h-8.654v-3.2235h12.337v12.088h-3.4688c0-1.8921 0.7152-3.8542 1.3947-5.2207h-1.6808c-0.6794 1.822-2.8251 5.7112-8.6898 5.7112-6.6157 0.0019-11.3-4.9053-11.3-12.754z"/>
        <polygon points="50.991 0.98096 69.193 0.98096 69.193 4.2044 54.567 4.2044 54.567 11.983 66.082 11.983 66.082 15.171 54.567 15.171 54.567 25.508 50.991 25.508"/>
        <path d="m86.798 22.223v3.415h-13.005v-3.415h4.7258v-17.454c-0.18397 0.27596-0.48868 0.58066-0.91411 0.91411-0.42544 0.33345-0.90261 0.6554-1.4315 0.96586s-1.0751 0.56916-1.6385 0.77614c-0.56342 0.20697-1.0751 0.31045-1.535 0.31045v-3.5185c0.62091 0 1.2533-0.16672 1.8972-0.50018 0.64391-0.33345 1.2303-0.70139 1.7592-1.1038s0.96586-0.77613 1.3108-1.1211c0.34495-0.34495 0.52892-0.54042 0.55192-0.58641h3.8979v21.318h4.3809zm2.2077-12.763c0-1.1958 0.22996-2.3112 0.6899-3.346s1.0866-1.9317 1.88-2.6906c0.79339-0.75889 1.7305-1.3568 2.8113-1.7937 1.0808-0.43694 2.2422-0.6554 3.484-0.6554 1.3568 0 2.5871 0.24721 3.691 0.74164 1.1038 0.49443 2.0409 1.2073 2.8113 2.1387 0.77039 0.93137 1.3683 2.0639 1.7937 3.3977 0.42544 1.3338 0.63816 2.8516 0.63816 4.5533 0 2.3457-0.21847 4.3981-0.6554 6.1573-0.43694 1.7592-1.0636 3.2368-1.88 4.4326s-1.7995 2.0927-2.9493 2.6906c-1.1498 0.59791-2.4261 0.89687-3.8289 0.89687-1.5868 0-3.0298-0.36219-4.3291-1.0866-1.2993-0.7244-2.3514-1.742-3.1563-3.0528l2.2422-2.3457c0.52892 0.96586 1.2648 1.7305 2.2077 2.2939 0.94287 0.56342 1.9662 0.84512 3.07 0.84512 1.7248 0 3.1045-0.72439 4.1394-2.1732 1.0349-1.4488 1.5638-3.4955 1.5868-6.1401-0.48293 1.0349-1.2361 1.8512-2.2594 2.4491-1.0234 0.59791-2.1904 0.89687-3.5012 0.89687-1.1958 0-2.3112-0.21272-3.346-0.63816-1.0349-0.42544-1.9317-1.0061-2.6906-1.742-0.75889-0.73589-1.3568-1.604-1.7937-2.6044-0.43694-1.0004-0.6554-2.0754-0.6554-3.2253zm8.8307-5.2777c-0.7129 0-1.3798 0.13798-2.0007 0.41394-0.62091 0.27596-1.1671 0.6554-1.6385 1.1383-0.47143 0.48293-0.84512 1.0406-1.1211 1.673-0.27596 0.63241-0.41394 1.3051-0.41394 2.018 0 0.7129 0.13798 1.3798 0.41394 2.0007 0.27596 0.62091 0.64965 1.1671 1.1211 1.6385 0.47143 0.47143 1.0233 0.84512 1.6558 1.1211 0.63241 0.27596 1.3051 0.41394 2.018 0.41394 0.7129 0 1.3855-0.13798 2.018-0.41394 0.63241-0.27596 1.1843-0.6439 1.6558-1.1038s0.84512-1.0061 1.1211-1.6385c0.27596-0.63241 0.41394-1.2936 0.41394-1.9835 0-0.7129-0.13798-1.3913-0.41394-2.0352-0.27596-0.64391-0.6554-1.2073-1.1383-1.6902-0.48293-0.48293-1.0406-0.86237-1.673-1.1383-0.63241-0.27596-1.3051-0.41394-2.018-0.41394z"/>
    </g>
</svg>
