<?xml version="1.0" standalone="no"?>
<!DOCTYPE svg PUBLIC "-//W3C//DTD SVG 20010904//EN"
 "http://www.w3.org/TR/2001/REC-SVG-20010904/DTD/svg10.dtd">
<svg version="1.0" xmlns="http://www.w3.org/2000/svg"
 width="459.000000pt" height="459.000000pt" viewBox="0 0 459.000000 459.000000"
 preserveAspectRatio="xMidYMid meet">
<metadata>
Created by potrace 1.14, written by Peter Selinger 2001-2017
</metadata>
<g transform="translate(0.000000,459.000000) scale(0.100000,-0.100000)"
fill="#000000" stroke="none">
<path d="M0 2295 l0 -2295 2295 0 2295 0 0 2295 0 2295 -2295 0 -2295 0 0
-2295z m1545 984 c188 -23 394 -89 533 -171 31 -18 97 -73 147 -123 123 -122
174 -220 200 -392 l7 -43 -195 0 -195 0 -7 38 c-34 188 -224 323 -511 362
-117 16 -388 8 -464 -13 -220 -62 -371 -176 -450 -342 -45 -96 -62 -177 -63
-300 0 -203 53 -338 182 -465 183 -181 472 -246 817 -184 273 49 485 207 530
397 l6 27 -531 0 -531 0 0 145 0 145 720 0 720 0 0 -510 0 -510 -161 0 -162 0
6 78 c16 199 20 362 8 362 -6 0 -11 -4 -11 -9 0 -17 -102 -163 -148 -213 -112
-120 -276 -206 -477 -250 -100 -22 -409 -16 -526 10 -457 100 -733 362 -820
777 -20 92 -17 314 4 415 52 241 188 446 386 579 128 87 307 155 486 185 99
17 379 20 500 5z m2885 -194 l0 -165 -680 0 -680 0 0 -215 0 -215 615 0 615 0
0 -150 0 -150 -615 0 -615 0 0 -425 0 -425 -195 0 -195 0 0 955 0 955 875 0
875 0 0 -165z"/>
</g>
</svg>
